<svg xmlns="http://www.w3.org/2000/svg" viewBox="0 0 260 64" role="img" aria-labelledby="cairnloop-horizontal-title cairnloop-horizontal-desc">
  <title id="cairnloop-horizontal-title">cairnloop horizontal lockup</title>
  <desc id="cairnloop-horizontal-desc">Default Cairnloop horizontal logo lockup with the C3.6 cairn mark and plain lowercase cairnloop wordmark.</desc>
  <g id="cairnloop-horizontal-c3-6-cairn-mark" transform="translate(8 8)">
    <circle cx="24" cy="14.8" r="5.4" fill="none" stroke="#A8492A" stroke-width="2.8"/>
    <rect x="12" y="25" width="24" height="7" rx="3.5" fill="#1E2A24"/>
    <rect x="7" y="34" width="34" height="8" rx="4" fill="#141B19"/>
  </g>
  <g id="cairnloop-horizontal-wordmark" aria-label="cairnloop" fill="#141B19" transform="translate(70 17)">
    <path d="M14.5 28.5C6.2 28.5.8 23 .8 14.8.8 6.8 6.4 1.1 14.7 1.1c3.8 0 7.1 1.2 9.4 3.4L20 9.8c-1.4-1.4-3.1-2.1-5.1-2.1-4.1 0-6.8 2.9-6.8 7.1 0 4.3 2.7 7.1 6.8 7.1 2.1 0 3.9-.8 5.3-2.3l4.1 5.2c-2.4 2.4-5.8 3.7-9.8 3.7z"/>
    <path d="M40.2 28.5c-7.7 0-12.9-5.5-12.9-13.7 0-8.3 5.2-13.7 12.9-13.7 3.5 0 6.2 1.2 8 3.5V1.7h7.1v26.2h-7.1v-3.1c-1.8 2.4-4.5 3.7-8 3.7zm1.6-6.4c3.9 0 6.5-2.9 6.5-7.3s-2.6-7.3-6.5-7.3-6.5 2.9-6.5 7.3 2.6 7.3 6.5 7.3z"/>
    <path d="M65.4 28V8.1h-5V1.7h12.3V28h-7.3zM64.5-3.4c0-2.3 1.8-4 4.3-4s4.3 1.7 4.3 4-1.8 4.1-4.3 4.1-4.3-1.8-4.3-4.1z"/>
    <path d="M80.8 28V1.7h7.1v4.4c1.4-3.1 3.8-4.8 7.4-4.8 1 0 1.8.1 2.5.4v7.2c-.9-.3-1.9-.5-3.1-.5-4.2 0-6.6 2.8-6.6 7.8V28h-7.3z"/>
    <path d="M101.5 28V1.7h7.1v3.5c1.8-2.6 4.7-4.1 8.3-4.1 6.1 0 9.7 4 9.7 10.9v16h-7.3V13.2c0-3.5-1.7-5.5-4.9-5.5-3.5 0-5.6 2.4-5.6 6.3v14h-7.3z"/>
    <path d="M137.4 28V-7.4h7.3V28h-7.3z"/>
    <path d="M163.3 28.5c-8.3 0-13.9-5.5-13.9-13.7s5.6-13.7 13.9-13.7 13.9 5.5 13.9 13.7-5.6 13.7-13.9 13.7zm0-6.4c4.1 0 6.8-2.9 6.8-7.3s-2.7-7.3-6.8-7.3-6.8 2.9-6.8 7.3 2.7 7.3 6.8 7.3z"/>
    <path d="M194.5 28.5c-8.3 0-13.9-5.5-13.9-13.7s5.6-13.7 13.9-13.7 13.9 5.5 13.9 13.7-5.6 13.7-13.9 13.7zm0-6.4c4.1 0 6.8-2.9 6.8-7.3s-2.7-7.3-6.8-7.3-6.8 2.9-6.8 7.3 2.7 7.3 6.8 7.3z"/>
    <path d="M213.2 37V1.7h7.1v3.1c1.8-2.4 4.5-3.7 8-3.7 7.7 0 12.9 5.5 12.9 13.7 0 8.3-5.2 13.7-12.9 13.7-3.4 0-6-1.2-7.8-3.4V37h-7.3zm13.5-14.9c3.9 0 6.5-2.9 6.5-7.3s-2.6-7.3-6.5-7.3-6.5 2.9-6.5 7.3 2.6 7.3 6.5 7.3z"/>
  </g>
</svg>
