<svg xmlns="http://www.w3.org/2000/svg" viewBox="0 0 276 92" role="img" aria-labelledby="cairnloop-tagline-title cairnloop-tagline-desc">
  <title id="cairnloop-tagline-title">cairnloop tagline lockup - Support that leaves a trail.</title>
  <desc id="cairnloop-tagline-desc">Promotional Cairnloop lockup with the separate tagline Support that leaves a trail.</desc>
  <g id="cairnloop-tagline-c3-6-cairn-mark" transform="translate(8 8)">
    <circle cx="24" cy="14.8" r="5.4" fill="none" stroke="#A8492A" stroke-width="2.8"/>
    <rect x="12" y="25" width="24" height="7" rx="3.5" fill="#1E2A24"/>
    <rect x="7" y="34" width="34" height="8" rx="4" fill="#141B19"/>
  </g>
  <g id="cairnloop-tagline-wordmark" aria-label="cairnloop" fill="#141B19" transform="translate(70 17)">
    <path d="M14.5 28.5C6.2 28.5.8 23 .8 14.8.8 6.8 6.4 1.1 14.7 1.1c3.8 0 7.1 1.2 9.4 3.4L20 9.8c-1.4-1.4-3.1-2.1-5.1-2.1-4.1 0-6.8 2.9-6.8 7.1 0 4.3 2.7 7.1 6.8 7.1 2.1 0 3.9-.8 5.3-2.3l4.1 5.2c-2.4 2.4-5.8 3.7-9.8 3.7z"/>
    <path d="M40.2 28.5c-7.7 0-12.9-5.5-12.9-13.7 0-8.3 5.2-13.7 12.9-13.7 3.5 0 6.2 1.2 8 3.5V1.7h7.1v26.2h-7.1v-3.1c-1.8 2.4-4.5 3.7-8 3.7zm1.6-6.4c3.9 0 6.5-2.9 6.5-7.3s-2.6-7.3-6.5-7.3-6.5 2.9-6.5 7.3 2.6 7.3 6.5 7.3z"/>
    <path d="M65.4 28V8.1h-5V1.7h12.3V28h-7.3zM64.5-3.4c0-2.3 1.8-4 4.3-4s4.3 1.7 4.3 4-1.8 4.1-4.3 4.1-4.3-1.8-4.3-4.1z"/>
    <path d="M80.8 28V1.7h7.1v4.4c1.4-3.1 3.8-4.8 7.4-4.8 1 0 1.8.1 2.5.4v7.2c-.9-.3-1.9-.5-3.1-.5-4.2 0-6.6 2.8-6.6 7.8V28h-7.3z"/>
    <path d="M101.5 28V1.7h7.1v3.5c1.8-2.6 4.7-4.1 8.3-4.1 6.1 0 9.7 4 9.7 10.9v16h-7.3V13.2c0-3.5-1.7-5.5-4.9-5.5-3.5 0-5.6 2.4-5.6 6.3v14h-7.3z"/>
    <path d="M137.4 28V-7.4h7.3V28h-7.3z"/>
    <path d="M163.3 28.5c-8.3 0-13.9-5.5-13.9-13.7s5.6-13.7 13.9-13.7 13.9 5.5 13.9 13.7-5.6 13.7-13.9 13.7zm0-6.4c4.1 0 6.8-2.9 6.8-7.3s-2.7-7.3-6.8-7.3-6.8 2.9-6.8 7.3 2.7 7.3 6.8 7.3z"/>
    <path d="M194.5 28.5c-8.3 0-13.9-5.5-13.9-13.7s5.6-13.7 13.9-13.7 13.9 5.5 13.9 13.7-5.6 13.7-13.9 13.7zm0-6.4c4.1 0 6.8-2.9 6.8-7.3s-2.7-7.3-6.8-7.3-6.8 2.9-6.8 7.3 2.7 7.3 6.8 7.3z"/>
    <path d="M213.2 37V1.7h7.1v3.1c1.8-2.4 4.5-3.7 8-3.7 7.7 0 12.9 5.5 12.9 13.7 0 8.3-5.2 13.7-12.9 13.7-3.4 0-6-1.2-7.8-3.4V37h-7.3zm13.5-14.9c3.9 0 6.5-2.9 6.5-7.3s-2.6-7.3-6.5-7.3-6.5 2.9-6.5 7.3 2.6 7.3 6.5 7.3z"/>
  </g>
  <g id="cairnloop-tagline-support-that-leaves-a-trail" aria-label="Support that leaves a trail." fill="#5E665D" transform="translate(72 62)">
    <path d="M2.1 12.2c1.4 1.1 3.2 1.8 5.2 1.8 2.1 0 3.4-.8 3.4-2.1 0-1.2-.9-1.8-3.9-2.5C3.3 8.6 1.3 7.1 1.3 4.4 1.3 1.7 3.7 0 7.1 0c2.3 0 4.2.6 5.7 1.7l-1.5 2.5c-1.2-.8-2.7-1.3-4.2-1.3-1.7 0-2.8.6-2.8 1.7 0 1 .8 1.5 3.6 2.1 3.9.9 5.8 2.4 5.8 5.1 0 3-2.5 4.9-6.4 4.9-2.7 0-5-.8-6.8-2.2l1.6-2.3z"/>
    <path d="M20.4 16.7c-3.2 0-5.2-2.1-5.2-5.5V5h3.1v6c0 1.8.8 2.8 2.4 2.8s2.6-1.1 2.6-3V5h3.1v11.4h-3.1v-1.5c-.8 1.1-1.8 1.8-2.9 1.8z"/>
    <path d="M29.2 21.4V5h3v1.4c.8-1.1 2-1.7 3.5-1.7 3.3 0 5.5 2.4 5.5 6s-2.2 6-5.5 6c-1.5 0-2.6-.5-3.4-1.5v6.2h-3.1zm5.9-7.5c1.8 0 3-1.3 3-3.2s-1.2-3.2-3-3.2-3 1.3-3 3.2 1.2 3.2 3 3.2z"/>
    <path d="M43.2 21.4V5h3v1.4c.8-1.1 2-1.7 3.5-1.7 3.3 0 5.5 2.4 5.5 6s-2.2 6-5.5 6c-1.5 0-2.6-.5-3.4-1.5v6.2h-3.1zm5.9-7.5c1.8 0 3-1.3 3-3.2s-1.2-3.2-3-3.2-3 1.3-3 3.2 1.2 3.2 3 3.2z"/>
    <path d="M57.2 16.4V-.8h3.1v17.2h-3.1z"/>
    <path d="M68.4 16.7c-3.7 0-6.2-2.4-6.2-6s2.5-6 6.2-6 6.2 2.4 6.2 6-2.5 6-6.2 6zm0-2.8c1.9 0 3.1-1.3 3.1-3.2s-1.2-3.2-3.1-3.2-3.1 1.3-3.1 3.2 1.2 3.2 3.1 3.2z"/>
    <path d="M76.6 16.4V5h3v2c.7-1.4 1.8-2.2 3.4-2.2.4 0 .8 0 1.1.2v3.1c-.4-.1-.8-.2-1.4-.2-1.9 0-3 1.3-3 3.4v5.1h-3.1z"/>
    <path d="M91.2 16.6c-2.6 0-4-1.5-4-4.2V7.6h-2V5h2V1.8h3.1V5h3.2v2.6h-3.2v4.5c0 1.2.5 1.8 1.6 1.8.6 0 1.1-.1 1.6-.3v2.6c-.7.3-1.5.4-2.3.4z"/>
    <path d="M103.1 16.6c-2.6 0-4-1.5-4-4.2V7.6h-2V5h2V1.8h3.1V5h3.2v2.6h-3.2v4.5c0 1.2.5 1.8 1.6 1.8.6 0 1.1-.1 1.6-.3v2.6c-.7.3-1.5.4-2.3.4z"/>
    <path d="M107.5 16.4V-.8h3.1v7.2c.8-1 1.9-1.6 3.4-1.6 2.7 0 4.3 1.8 4.3 4.8v6.8h-3.1V10c0-1.6-.8-2.5-2.1-2.5-1.6 0-2.5 1.1-2.5 2.8v6.1h-3.1z"/>
    <path d="M125.8 16.7c-3.3 0-5.5-2.4-5.5-6s2.2-6 5.5-6c1.5 0 2.7.5 3.5 1.6V5h3v11.4h-3v-1.5c-.8 1.2-2 1.8-3.5 1.8zm.6-2.8c1.8 0 3-1.3 3-3.2s-1.2-3.2-3-3.2-3 1.3-3 3.2 1.2 3.2 3 3.2z"/>
    <path d="M139.6 16.6c-2.6 0-4-1.5-4-4.2V7.6h-2V5h2V1.8h3.1V5h3.2v2.6h-3.2v4.5c0 1.2.5 1.8 1.6 1.8.6 0 1.1-.1 1.6-.3v2.6c-.7.3-1.5.4-2.3.4z"/>
    <path d="M149.3 16.4V-.8h3.1v17.2h-3.1z"/>
    <path d="M160.4 16.7c-3.7 0-6.1-2.4-6.1-6s2.4-6 6-6c3.5 0 5.8 2.3 5.8 5.8 0 .4 0 .8-.1 1.1h-8.6c.3 1.5 1.4 2.5 3.1 2.5 1.1 0 2.1-.4 2.8-1.2l2 1.8c-1.2 1.3-2.8 2-4.9 2zm-3-7.1h5.7c-.2-1.4-1.2-2.3-2.8-2.3-1.5 0-2.6.9-2.9 2.3z"/>
    <path d="M173 16.7c-3.3 0-5.5-2.4-5.5-6s2.2-6 5.5-6c1.5 0 2.7.5 3.5 1.6V5h3v11.4h-3v-1.5c-.8 1.2-2 1.8-3.5 1.8zm.6-2.8c1.8 0 3-1.3 3-3.2s-1.2-3.2-3-3.2-3 1.3-3 3.2 1.2 3.2 3 3.2z"/>
    <path d="M185.5 16.4 180.8 5h3.3l2.8 7.8 2.8-7.8h3.2l-4.7 11.4h-2.7z"/>
    <path d="M199.7 16.7c-3.7 0-6.1-2.4-6.1-6s2.4-6 6-6c3.5 0 5.8 2.3 5.8 5.8 0 .4 0 .8-.1 1.1h-8.6c.3 1.5 1.4 2.5 3.1 2.5 1.1 0 2.1-.4 2.8-1.2l2 1.8c-1.2 1.3-2.8 2-4.9 2zm-3-7.1h5.7c-.2-1.4-1.2-2.3-2.8-2.3-1.5 0-2.6.9-2.9 2.3z"/>
    <path d="M211.5 16.7c-1.9 0-3.6-.5-4.9-1.5l1.2-2.2c1.1.8 2.4 1.2 3.8 1.2 1.2 0 1.9-.4 1.9-1.1s-.5-1-2.4-1.3c-2.9-.5-4.2-1.6-4.2-3.5 0-2.2 1.9-3.6 4.9-3.6 1.7 0 3.2.4 4.4 1.2l-1.1 2.2c-1-.6-2.1-.9-3.3-.9s-1.9.4-1.9 1.1.5.9 2.4 1.2c2.9.5 4.2 1.7 4.2 3.6 0 2.3-1.9 3.6-5 3.6z"/>
    <path d="M226.4 16.4V5h3v1.5c.8-1.1 2-1.8 3.5-1.8 3.3 0 5.5 2.4 5.5 6s-2.2 6-5.5 6c-1.5 0-2.7-.6-3.5-1.8v1.5h-3zm5.9-2.5c1.8 0 3-1.3 3-3.2s-1.2-3.2-3-3.2-3 1.3-3 3.2 1.2 3.2 3 3.2z"/>
    <path d="M240.5 16.4v-3.6h3.5v3.6h-3.5z"/>
  </g>
</svg>
